<?xml version="1.0" encoding="UTF-8"?>
<svg version="1.1" xmlns="http://www.w3.org/2000/svg" width="48" height="48">
<path d="M0 0 C0.78117187 -0.01160156 1.56234375 -0.02320312 2.3671875 -0.03515625 C7.32472486 -0.01011818 10.65708821 0.74419767 15 3.375 C15 4.035 15 4.695 15 5.375 C16.32 6.035 17.64 6.695 19 7.375 C19 8.035 19 8.695 19 9.375 C19.66 9.375 20.32 9.375 21 9.375 C21 10.365 21 11.355 21 12.375 C21.99 12.375 22.98 12.375 24 12.375 C24.08767555 15.74983413 24.14061628 19.12437215 24.1875 22.5 C24.21263672 23.45132812 24.23777344 24.40265625 24.26367188 25.3828125 C24.32056144 30.84421074 24.04470749 34.6281332 21 39.375 C20.34 39.375 19.68 39.375 19 39.375 C18.34 40.695 17.68 42.015 17 43.375 C16.34 43.375 15.68 43.375 15 43.375 C15 44.035 15 44.695 15 45.375 C9.8508642 48.49418803 5.8362095 48.83667638 0 48.75 C-1.17175781 48.76740234 -1.17175781 48.76740234 -2.3671875 48.78515625 C-7.32472486 48.76011818 -10.65708821 48.00580233 -15 45.375 C-15 44.715 -15 44.055 -15 43.375 C-16.32 42.715 -17.64 42.055 -19 41.375 C-19 40.715 -19 40.055 -19 39.375 C-19.66 39.375 -20.32 39.375 -21 39.375 C-23.13022657 37.76709172 -23.9140826 36.85597535 -24.38818359 34.2019043 C-24.39156738 33.37601807 -24.39495117 32.55013184 -24.3984375 31.69921875 C-24.40230469 30.78849609 -24.40617187 29.87777344 -24.41015625 28.93945312 C-24.39855469 27.99005859 -24.38695313 27.04066406 -24.375 26.0625 C-24.38660156 25.12470703 -24.39820312 24.18691406 -24.41015625 23.22070312 C-24.38739893 17.83859783 -23.96229692 14.05354832 -21 9.375 C-20.34 9.375 -19.68 9.375 -19 9.375 C-18.34 8.055 -17.68 6.735 -17 5.375 C-16.34 5.375 -15.68 5.375 -15 5.375 C-15 4.715 -15 4.055 -15 3.375 C-9.8508642 0.25581197 -5.8362095 -0.08667638 0 0 Z " fill="#FFDCA8" transform="translate(24,-0.375)"/>
<path d="M0 0 C0.99 0 1.98 0 3 0 C3.08138426 2.87557703 3.14067851 5.74882262 3.1875 8.625 C3.21263672 9.43324219 3.23777344 10.24148437 3.26367188 11.07421875 C3.32589961 16.17689316 2.75491551 19.53139688 0 24 C-0.66 24 -1.32 24 -2 24 C-2.66 25.32 -3.32 26.64 -4 28 C-4.66 28 -5.32 28 -6 28 C-6 28.66 -6 29.32 -6 30 C-11.1491358 33.11918803 -15.1637905 33.46167638 -21 33.375 C-22.17175781 33.39240234 -22.17175781 33.39240234 -23.3671875 33.41015625 C-28.32472486 33.38511818 -31.65708821 32.63080233 -36 30 C-36 29.34 -36 28.68 -36 28 C-37.32 27.34 -38.64 26.68 -40 26 C-40 25.34 -40 24.68 -40 24 C-40.66 23.67 -41.32 23.34 -42 23 C-41.319375 23.00902344 -40.63875 23.01804687 -39.9375 23.02734375 C-31.3648586 22.7651486 -24.96866178 20.12485306 -17.37109375 16.49609375 C-14 15 -14 15 -11 15 C-11.99 17.475 -11.99 17.475 -13 20 C-4.8367457 16.47976598 -4.8367457 16.47976598 1 10 C1.33 9.01 1.66 8.02 2 7 C-0.31 7.33 -2.62 7.66 -5 8 C-1.125 1.125 -1.125 1.125 0 0 Z " fill="#FFDCA8" transform="translate(45,15)"/>
<path d="M0 0 C-0.33 0.66 -0.66 1.32 -1 2 C-1.185625 3.4540625 -1.185625 3.4540625 -1.375 4.9375 C-2.02191108 8.10736429 -2.34160522 9.22773681 -5 11 C-6.32 11 -7.64 11 -9 11 C-8.45276317 7.62537285 -7.9451 5.91765 -6 3 C-14.57232485 2.86983455 -20.3597246 5.67680402 -27 11 C-30.11517481 14.05364049 -30.96376111 16.43829726 -31.25 20.875 C-31.1675 21.90625 -31.085 22.9375 -31 24 C-22.35413567 24.54319566 -15.94445395 23.3517664 -8 20 C-6.00340982 19.32318977 -4.00535378 18.65038501 -2 18 C-6.6699518 23.53414217 -15.48481855 26.53892799 -22.484375 27.45703125 C-30.16000448 27.55999701 -30.16000448 27.55999701 -34 25 C-34.88418297 21.91176672 -34.67879181 19.11944764 -34 16 C-29.69875196 8.37631357 -21.7468322 4.03435666 -13.9375 0.6875 C-3.50724638 -1.75362319 -3.50724638 -1.75362319 0 0 Z " fill="#FFA132" transform="translate(34,11)"/>
<path d="M0 0 C0 0.99 0 1.98 0 3 C-0.99 3.33 -1.98 3.66 -3 4 C-4.39712274 5.95597184 -5.73779907 7.95436401 -7 10 C-5.02 10 -3.04 10 -1 10 C-1.58149765 13.92510917 -3.29257432 16.15007824 -6 19 C-9.23034679 21.27375207 -11.94541635 23 -16 23 C-15.814375 22.21625 -15.62875 21.4325 -15.4375 20.625 C-14.74037734 18.02910225 -14.74037734 18.02910225 -16 16 C-15.01 15.67 -14.02 15.34 -13 15 C-10.97043812 12.32485865 -10.97043812 12.32485865 -9 9.125 C-3.19518072 0 -3.19518072 0 0 0 Z " fill="#FF9C29" transform="translate(48,12)"/>
<path d="M0 0 C-0.33 0.66 -0.66 1.32 -1 2 C-1.12375 2.969375 -1.2475 3.93875 -1.375 4.9375 C-2.02191108 8.10736429 -2.34160522 9.22773681 -5 11 C-6.32 11 -7.64 11 -9 11 C-8.45276317 7.62537285 -7.9451 5.91765 -6 3 C-8.475 2.01 -8.475 2.01 -11 1 C-11 0.67 -11 0.34 -11 0 C-9.54263913 -0.19491452 -8.08405407 -0.38069358 -6.625 -0.5625 C-5.81289063 -0.66691406 -5.00078125 -0.77132813 -4.1640625 -0.87890625 C-2 -1 -2 -1 0 0 Z " fill="#FFBD6B" transform="translate(34,11)"/>
<path d="M0 0 C0.99 0.33 1.98 0.66 3 1 C1.19587357 4.26460973 0.16605307 5.88929795 -3 8 C-3.99 8 -4.98 8 -6 8 C-4.75237172 4.15314615 -3.6129609 1.97070595 0 0 Z " fill="#FFD79E" transform="translate(41,24)"/>
<path d="M0 0 C-0.57352893 3.87132028 -2.48704352 6.08172796 -5 9 C-5.66 8.67 -6.32 8.34 -7 8 C-6.01 6.35 -5.02 4.7 -4 3 C-4.99 3 -5.98 3 -7 3 C-7 2.34 -7 1.68 -7 1 C-4 0 -4 0 0 0 Z " fill="#FFA439" transform="translate(47,22)"/>
<path d="M0 0 C0.99 0.33 1.98 0.66 3 1 C2.39622642 6.43396226 2.39622642 6.43396226 0.6875 8.875 C-1 10 -1 10 -5 10 C-4.67 8.68 -4.34 7.36 -4 6 C-3.67 6.66 -3.34 7.32 -3 8 C-2.01 7.34 -1.02 6.68 0 6 C0.2502157 2.91634129 0.2502157 2.91634129 0 0 Z " fill="#FFA134" transform="translate(30,12)"/>
</svg>
